<svg id="Layer_1" data-name="Layer 1" xmlns="http://www.w3.org/2000/svg" viewBox="0 0 72.63 97.64"><defs><style>.cls-1{fill:#a2cd3a;}.cls-2{fill:#047f5d;}</style></defs><title>icon_grow-dough</title><path class="cls-1" d="M365.24,346.64c-3.1.23-6.21,0.37-9.3,0.72a61.64,61.64,0,0,0-15.05,3.58,27.77,27.77,0,0,0-14.82,12.42c-2.91,5.1-3.17,10.21.34,15.21a1.19,1.19,0,0,1,0,1c-0.76,1.94-1.57,3.87-2.35,5.8-0.23.59-.4,1.2-0.64,1.92-0.95-1.25-1.81-2.4-2.7-3.53a1,1,0,0,1-.19-1,8.09,8.09,0,0,0-1.72-8.05,15.19,15.19,0,0,0-11.12-5.31,38,38,0,0,0-10.95,1.1c-1.21.29-2.4,0.63-3.67,1a1.56,1.56,0,0,0,.19.21,24.35,24.35,0,0,1,9.19,10.18c0.81,1.56,1.6,3.13,2.48,4.65a7.65,7.65,0,0,0,3.85,3.25c3,1.22,6.06-.1,8.17-2.18a0.79,0.79,0,0,0,0-.72,34.72,34.72,0,0,0-12.34-12.1l-0.76-.45a9.69,9.69,0,0,1,4.13,1.14,28.14,28.14,0,0,1,13.49,14.85,13.81,13.81,0,0,1,.23,4.16,7.3,7.3,0,0,0,2.91.89,6.74,6.74,0,0,0,2.71-.8c0.06-.42.13-0.84,0.2-1.26a63.27,63.27,0,0,1,7.73-21.66,42,42,0,0,1,13.11-14.05c0.34-.23.7-0.42,1.06-0.64a0.71,0.71,0,0,1-.23.47,61.18,61.18,0,0,0-9.76,12.58,63.93,63.93,0,0,0-5.9,12.85c-0.11.33-.25,0.61,0.2,0.82a15.21,15.21,0,0,0,9.48,1.45c3.62-.7,6.16-2.89,8.15-5.87s2.78-6.51,3.41-10c0.53-2.92,1-5.84,1.75-8.71s2.59-5.48,4.44-7.9c1.5-2,3.1-3.84,4.74-5.86h-0.49Z" transform="translate(-293.1 -346.64)"/><path class="cls-2" d="M316.07,401.07a14,14,0,0,0,17.11,0s6.78-5.92,3.71-8.51-9.87,2.88-12.27,2.68c-2.4.19-9.2-5.27-12.27-2.68S316.07,401.07,316.07,401.07Z" transform="translate(-293.1 -346.64)"/><path class="cls-2" d="M334.46,405.49s-4.86,3.89-9.84,3.89a10.45,10.45,0,0,1-1.42-.11c-3,9.88-1.28,20.65-1.28,20.65L316,432.52c-3.45-8-.08-19.94,1.73-25.17a21.49,21.49,0,0,1-2.92-1.87c-8.74,6.37-14.85,19.88-14.85,28.45,0,11.54,11.05,10.31,24.69,10.31s24.69,1.23,24.69-10.31C349.31,425.36,343.2,411.86,334.46,405.49Z" transform="translate(-293.1 -346.64)"/></svg>